<svg width="204" height="220" viewBox="0 0 204 220" fill="none" xmlns="http://www.w3.org/2000/svg">
<circle cx="102" cy="117.018" r="102" fill="url(#paint0_linear_129_157)"/>
<path d="M129.669 175.102C136.155 174.457 141.312 171.594 145.143 166.512C148.973 161.43 150.889 155.04 150.889 147.341C150.889 141.917 149.959 137.139 148.101 133.005C146.243 128.909 143.664 125.685 140.364 123.334C137.103 121.021 133.386 119.864 129.214 119.864C126.142 119.864 123.45 120.528 121.136 121.855C118.823 123.182 116.832 124.965 115.163 127.202C113.532 129.478 112.129 131.981 110.953 134.712C109.778 137.48 108.792 140.268 107.995 143.074L104.468 155.362C103.444 159.079 102.136 162.795 100.543 166.512C98.9499 170.229 96.9399 173.623 94.5126 176.695C92.1233 179.805 89.1841 182.289 85.695 184.147C82.2438 186.043 78.091 186.992 73.2366 186.992C67.0168 186.992 61.4228 185.38 56.4546 182.156C51.4864 178.932 47.5422 174.306 44.622 168.275C41.7396 162.245 40.2985 155.021 40.2985 146.601C40.2985 138.675 41.6069 131.791 44.2237 125.951C46.8785 120.11 50.5383 115.521 55.2031 112.184C59.8679 108.847 65.2723 106.969 71.4162 106.552L71.4162 117.475C66.8272 117.854 62.9399 119.371 59.7541 122.026C56.5684 124.68 54.1412 128.132 52.4725 132.379C50.8417 136.627 50.0263 141.367 50.0263 146.601C50.0263 152.404 50.9934 157.562 52.9276 162.075C54.8997 166.626 57.6303 170.191 61.1194 172.77C64.6465 175.386 68.7424 176.695 73.4072 176.695C77.3515 176.695 80.651 175.671 83.3057 173.623C85.9984 171.575 88.255 168.712 90.0754 165.033C91.8958 161.392 93.5076 157.163 94.9109 152.347L99.0068 138.409C101.737 129.269 105.511 122.177 110.327 117.133C115.144 112.089 121.288 109.567 128.759 109.567C135.017 109.567 140.516 111.236 145.257 114.573C150.035 117.949 153.752 122.5 156.407 128.226C159.099 133.991 160.446 140.457 160.446 147.625C160.446 154.869 159.118 161.278 156.464 166.853C153.809 172.428 150.149 176.847 145.484 180.108C140.857 183.408 135.586 185.171 129.669 185.399L129.669 175.102Z" fill="black"/>
<path d="M90.7968 67.0015C84.3065 67.5926 79.1252 70.4133 75.2529 75.4634C71.3806 80.5136 69.4126 86.8879 69.349 94.5865C69.3042 100.01 70.1938 104.796 72.0179 108.945C73.8423 113.056 76.3945 116.301 79.6745 118.679C82.9168 121.02 86.6238 122.207 90.7955 122.242C93.8673 122.267 96.5654 121.625 98.8897 120.317C101.214 119.009 103.22 117.243 104.907 115.019C106.556 112.757 107.98 110.266 109.179 107.545C110.377 104.786 111.386 102.007 112.206 99.2074L115.834 86.9492C116.889 83.2411 118.228 79.5354 119.851 75.832C121.475 72.1286 123.513 68.751 125.966 65.6992C128.38 62.6092 131.34 60.1495 134.844 58.32C138.311 56.4524 142.472 55.5386 147.326 55.5787C153.546 55.6301 159.126 57.2881 164.067 60.5527C169.009 63.8173 172.915 68.4766 175.785 74.5307C178.617 80.5844 179.999 87.8208 179.929 96.2399C179.864 104.166 178.498 111.038 175.833 116.857C173.13 122.675 169.433 127.234 164.741 130.533C160.048 133.832 154.629 135.664 148.482 136.03L148.572 125.108C153.164 124.767 157.064 123.282 160.271 120.654C163.479 118.026 165.934 114.595 167.638 110.361C169.304 106.127 170.158 101.393 170.202 96.1595C170.25 90.3572 169.325 85.1915 167.428 80.6626C165.494 76.0954 162.793 72.508 159.325 69.9003C155.82 67.2544 151.735 65.9122 147.07 65.8736C143.126 65.841 139.818 66.8377 137.147 68.8637C134.437 70.8893 132.157 73.7339 130.306 77.3975C128.456 81.0232 126.809 85.2384 125.366 90.0431L121.155 103.946C118.349 113.063 114.517 120.124 109.659 125.128C104.801 130.132 98.6365 132.603 91.1654 132.542C84.908 132.49 79.4228 130.776 74.7099 127.399C69.9594 123.985 66.2804 119.403 63.6731 113.655C61.0281 107.868 59.7352 101.391 59.7945 94.2231C59.8543 86.9796 61.2346 80.5814 63.9354 75.0285C66.6361 69.4757 70.3323 65.0878 75.0239 61.8648C79.6779 58.6037 84.9639 56.8838 90.8819 56.7051L90.7968 67.0015Z" fill="black"/>
<defs>
<linearGradient id="paint0_linear_129_157" x1="205.252" y1="112.637" x2="7.5092" y2="130.159" gradientUnits="userSpaceOnUse">
<stop stop-color="#1AE3FF"/>
<stop offset="1" stop-color="#5C8A7C" stop-opacity="0"/>
</linearGradient>
</defs>
</svg>
