<svg width="80" height="88" viewBox="0 0 80 88" fill="none" xmlns="http://www.w3.org/2000/svg">
<ellipse cx="40" cy="46.5927" rx="40" ry="40.6103" fill="url(#paint0_linear_91_24)"/>
<path d="M51.2001 68.8531C53.711 68.6035 55.7081 67.4948 57.1911 65.5272C58.6742 63.5595 59.4158 61.0853 59.4158 58.1044C59.4158 56.0046 59.056 54.1544 58.3365 52.5539C57.617 50.968 56.6185 49.7199 55.341 48.8095C54.0781 47.9137 52.6391 47.4659 51.0239 47.4659C49.8345 47.4659 48.7919 47.7228 47.8962 48.2368C47.0005 48.7507 46.2295 49.4409 45.5834 50.3072C44.952 51.1883 44.4087 52.1574 43.9535 53.2147C43.4983 54.2866 43.1165 55.3659 42.8082 56.4525L41.4426 61.2101C41.0461 62.6491 40.5395 64.0881 39.9228 65.5272C39.306 66.9662 38.5278 68.2804 37.588 69.4698C36.6629 70.6739 35.5249 71.6357 34.174 72.3552C32.8377 73.0894 31.2298 73.4565 29.3503 73.4565C26.9421 73.4565 24.7762 72.8325 22.8526 71.5843C20.929 70.3362 19.4019 68.5447 18.2712 66.21C17.1552 63.8752 16.5973 61.0779 16.5973 57.8181C16.5973 54.7491 17.1039 52.084 18.117 49.8226C19.1449 47.5613 20.5619 45.7846 22.3681 44.4924C24.1742 43.2002 26.2667 42.4733 28.6455 42.3118L28.6455 46.5408C26.8687 46.6876 25.3636 47.275 24.1301 48.3029C22.8967 49.3307 21.9569 50.667 21.3108 52.3116C20.6794 53.9562 20.3637 55.7917 20.3637 57.8181C20.3637 60.0647 20.7381 62.0618 21.487 63.8091C22.2506 65.5712 23.3078 66.9515 24.6588 67.95C26.0244 68.9632 27.6102 69.4698 29.4164 69.4698C30.9435 69.4698 32.221 69.0734 33.2489 68.2804C34.2915 67.4875 35.1652 66.3788 35.87 64.9545C36.5748 63.5448 37.1989 61.9076 37.7422 60.0427L39.3281 54.6463C40.3853 51.1075 41.8464 48.3616 43.7112 46.4086C45.5761 44.4557 47.9549 43.4792 50.8477 43.4792C53.2705 43.4792 55.3997 44.1253 57.2352 45.4175C59.0854 46.7243 60.5244 48.4864 61.5523 50.7037C62.5948 52.9357 63.1161 55.4393 63.1161 58.2146C63.1161 61.0192 62.6022 63.5008 61.5743 65.6593C60.5464 67.8179 59.1294 69.5286 57.3233 70.7914C55.5319 72.0689 53.4908 72.7517 51.2001 72.8398L51.2001 68.8531Z" fill="black"/>
<path d="M35.2498 27.5354C32.7369 27.764 30.7309 28.8558 29.2318 30.811C27.7328 32.7661 26.9711 35.2341 26.9469 38.2148C26.9298 40.3146 27.2745 42.1677 27.9809 43.7742C28.6875 45.3661 29.6758 46.6226 30.9459 47.5437C32.2014 48.45 33.6367 48.9099 35.2519 48.9234C36.4413 48.9334 37.4859 48.6852 38.3857 48.1788C39.2856 47.6724 40.0621 46.9887 40.7152 46.1278C41.3538 45.2521 41.905 44.2876 42.3688 43.2342C42.8327 42.1661 43.2232 41.09 43.5404 40.0061L44.9447 35.2601C45.3529 33.8244 45.8712 32.3897 46.4996 30.9559C47.128 29.5221 47.917 28.2144 48.8664 27.0329C49.8012 25.8366 50.947 24.8844 52.3038 24.1763C53.6459 23.4533 55.2568 23.0997 57.1363 23.1155C59.5443 23.1357 61.7051 23.7779 63.6184 25.0421C65.5318 26.3064 67.0443 28.1106 68.1559 30.4547C69.2529 32.7988 69.7881 35.6007 69.7616 38.8604C69.7366 41.9293 69.2083 44.5901 68.1767 46.8428C67.1305 49.0955 65.6991 50.8603 63.8825 52.1373C62.0659 53.4143 59.9676 54.1235 57.5875 54.2651L57.622 50.0362C59.3999 49.9043 60.9097 49.3296 62.1515 48.3121C63.3933 47.2946 64.3439 45.9663 65.0033 44.3272C65.6481 42.6879 65.9787 40.8551 65.9952 38.8288C66.0135 36.5822 65.6554 34.5821 64.9207 32.8285C64.1715 31.0601 63.1256 29.671 61.7828 28.6612C60.4255 27.6365 58.8438 27.1166 57.0377 27.1015C55.5106 27.0887 54.23 27.4744 53.1957 28.2587C52.1467 29.0429 51.264 30.1441 50.5476 31.5625C49.8313 32.9662 49.1939 34.5982 48.6355 36.4584L47.0057 41.8413C45.9197 45.3712 44.4363 48.1047 42.5557 50.042C40.675 51.9793 38.2883 52.9358 35.3956 52.9115C32.9729 52.8912 30.849 52.2272 29.0241 50.9197C27.1846 49.5973 25.76 47.8232 24.7502 45.5974C23.7258 43.3567 23.225 40.8488 23.2475 38.0737C23.2704 35.2691 23.8045 32.7919 24.8499 30.6421C25.8953 28.4922 27.3262 26.7935 29.1425 25.5458C30.9443 24.2834 32.9909 23.6177 35.2822 23.5489L35.2498 27.5354Z" fill="black"/>
<defs>
<linearGradient id="paint0_linear_91_24" x1="80.4908" y1="44.8487" x2="2.92676" y2="51.6182" gradientUnits="userSpaceOnUse">
<stop stop-color="#1AE3FF"/>
<stop offset="1" stop-color="#5C8A7C" stop-opacity="0"/>
</linearGradient>
</defs>
</svg>
